<?xml version="1.0" encoding="UTF-8" standalone="no"?>
<!-- Created with Inkscape (http://www.inkscape.org/) -->

<svg
   xmlns:dc="http://purl.org/dc/elements/1.1/"
   xmlns:cc="http://creativecommons.org/ns#"
   xmlns:rdf="http://www.w3.org/1999/02/22-rdf-syntax-ns#"
   xmlns:svg="http://www.w3.org/2000/svg"
   xmlns="http://www.w3.org/2000/svg"
   xmlns:sodipodi="http://sodipodi.sourceforge.net/DTD/sodipodi-0.dtd"
   xmlns:inkscape="http://www.inkscape.org/namespaces/inkscape"
   width="210mm"
   height="297mm"
   viewBox="0 0 744.09448819 1052.3622047"
   id="svg2"
   version="1.1"
   inkscape:version="0.91 r13725"
   sodipodi:docname="curved.svg">
  <defs
     id="defs4" />
  <sodipodi:namedview
     id="base"
     pagecolor="#ffffff"
     bordercolor="#666666"
     borderopacity="1.0"
     inkscape:pageopacity="0.0"
     inkscape:pageshadow="2"
     inkscape:zoom="1.979899"
     inkscape:cx="303.99725"
     inkscape:cy="771.87378"
     inkscape:document-units="px"
     inkscape:current-layer="layer1"
     showgrid="true"
     inkscape:window-width="2560"
     inkscape:window-height="1536"
     inkscape:window-x="0"
     inkscape:window-y="27"
     inkscape:window-maximized="1">
    <inkscape:grid
       type="xygrid"
       id="grid4136" />
  </sodipodi:namedview>
  <metadata
     id="metadata7">
    <rdf:RDF>
      <cc:Work
         rdf:about="">
        <dc:format>image/svg+xml</dc:format>
        <dc:type
           rdf:resource="http://purl.org/dc/dcmitype/StillImage" />
        <dc:title></dc:title>
      </cc:Work>
    </rdf:RDF>
  </metadata>
  <g
     inkscape:label="Layer 1"
     inkscape:groupmode="layer"
     id="layer1">
    <path
       style="fill:#cccccc;fill-rule:evenodd;stroke:#000000;stroke-width:1px;stroke-linecap:butt;stroke-linejoin:miter;stroke-opacity:1"
       d="m 475,67.362205 40,0 0,-20 -30,-15 -10,0 z"
       id="path6381"
       inkscape:connector-curvature="0" />
    <path
       style="fill:#cccccc;fill-rule:evenodd;stroke:#000000;stroke-width:1px;stroke-linecap:butt;stroke-linejoin:miter;stroke-opacity:1"
       d="m 435,137.3622 40,0 0,-25 -30,-10 -10,0 z"
       id="path6383"
       inkscape:connector-curvature="0" />
    <path
       style="fill:#cccccc;fill-rule:evenodd;stroke:#000000;stroke-width:1px;stroke-linecap:butt;stroke-linejoin:miter;stroke-opacity:1"
       d="m 475,137.3622 30,0 -10,-20 -20,-5 z"
       id="path6385"
       inkscape:connector-curvature="0" />
    <path
       style="fill:#cccccc;fill-rule:evenodd;stroke:#000000;stroke-width:1px;stroke-linecap:butt;stroke-linejoin:miter;stroke-opacity:1"
       d="m 435,252.3622 40,0 0,-20 -40,-15 z"
       id="path6387"
       inkscape:connector-curvature="0" />
    <path
       style="fill:#cccccc;fill-rule:evenodd;stroke:#000000;stroke-width:1px;stroke-linecap:butt;stroke-linejoin:miter;stroke-opacity:1"
       d="m 475,292.3622 40,0 -10,-25 -20,-15 -10,0 z"
       id="path6389"
       inkscape:connector-curvature="0" />
    <path
       style="fill:#cccccc;fill-rule:evenodd;stroke:#000000;stroke-width:1px;stroke-linecap:butt;stroke-linejoin:miter;stroke-opacity:1"
       d="m 475,252.3622 20,0 -20,-20 z"
       id="path6391"
       inkscape:connector-curvature="0" />
    <path
       style="fill:#cccccc;fill-rule:evenodd;stroke:#000000;stroke-width:1px;stroke-linecap:butt;stroke-linejoin:miter;stroke-opacity:1"
       d="m 435,402.3622 35,0 -20,-25 -15,0 z"
       id="path6393"
       inkscape:connector-curvature="0" />
    <path
       style="fill:#cccccc;fill-rule:evenodd;stroke:#000000;stroke-width:1px;stroke-linecap:butt;stroke-linejoin:miter;stroke-opacity:1"
       d="m 475,442.3622 30,0 -20,-40 -10,0 z"
       id="path6395"
       inkscape:connector-curvature="0" />
    <path
       style="fill:#cccccc;fill-rule:evenodd;stroke:#000000;stroke-width:1px;stroke-linecap:butt;stroke-linejoin:miter;stroke-opacity:1"
       d="m 245,402.3622 40,0 0,-15 -20,-20 -20,0 z"
       id="path6275"
       inkscape:connector-curvature="0" />
    <path
       style="fill:#cccccc;fill-rule:evenodd;stroke:#000000;stroke-width:1px;stroke-linecap:butt;stroke-linejoin:miter;stroke-opacity:1"
       d="m 285,442.3622 35,0 -15,-40 -20,0 0,40 z"
       id="path6277"
       inkscape:connector-curvature="0" />
    <path
       style="fill:#cccccc;fill-rule:evenodd;stroke:#000000;stroke-width:1px;stroke-linecap:butt;stroke-linejoin:miter;stroke-opacity:1"
       d="m 285,402.3622 15,0 -15,-15 z"
       id="path6279"
       inkscape:connector-curvature="0" />
    <path
       style="fill:#cccccc;fill-rule:evenodd;stroke:#000000;stroke-width:1px;stroke-linecap:butt;stroke-linejoin:miter;stroke-opacity:1"
       d="m 285,292.3622 40,0 -15,-40 -25,0 z"
       id="path6281"
       inkscape:connector-curvature="0" />
    <path
       style="fill:#cccccc;fill-rule:evenodd;stroke:#000000;stroke-width:1px;stroke-linecap:butt;stroke-linejoin:miter;stroke-opacity:1"
       d="m 285,252.3622 20,0 -20,-25 z"
       id="path6283"
       inkscape:connector-curvature="0" />
    <path
       style="fill:#cccccc;fill-rule:evenodd;stroke:#000000;stroke-width:1px;stroke-linecap:butt;stroke-linejoin:miter;stroke-opacity:1"
       d="m 245,252.3622 40,0 0,-25 -30,-15 -10,0 z"
       id="path6285"
       inkscape:connector-curvature="0" />
    <path
       style="fill:#cccccc;fill-rule:evenodd;stroke:#000000;stroke-width:1px;stroke-linecap:butt;stroke-linejoin:miter;stroke-opacity:1"
       d="m 285,137.3622 c 5,0 35,0 35,0 l -15,-20 -20,-10 z"
       id="path6287"
       inkscape:connector-curvature="0" />
    <path
       style="fill:#cccccc;fill-rule:evenodd;stroke:#000000;stroke-width:1px;stroke-linecap:butt;stroke-linejoin:miter;stroke-opacity:1"
       d="m 285,67.362205 40,0 0,-20 -20,-15 -20,0 z"
       id="path6289"
       inkscape:connector-curvature="0" />
    <path
       style="fill:#cccccc;fill-rule:evenodd;stroke:#000000;stroke-width:1px;stroke-linecap:butt;stroke-linejoin:miter;stroke-opacity:1"
       d="m 135,402.3622 0,40 40,0 -10,-35 -5,-5 z"
       id="path6197"
       inkscape:connector-curvature="0" />
    <path
       style="fill:#cccccc;fill-rule:evenodd;stroke:#000000;stroke-width:1px;stroke-linecap:butt;stroke-linejoin:miter;stroke-opacity:1"
       d="m 135,377.3622 0,25 25,0 -25,-25 z"
       id="path6199"
       inkscape:connector-curvature="0" />
    <path
       style="fill:#cccccc;fill-rule:evenodd;stroke:#000000;stroke-width:1px;stroke-linecap:butt;stroke-linejoin:miter;stroke-opacity:1"
       d="m 135,252.3622 30,0 -30,-35 z"
       id="path6201"
       inkscape:connector-curvature="0" />
    <path
       style="fill:#cccccc;fill-rule:evenodd;stroke:#000000;stroke-width:1px;stroke-linecap:butt;stroke-linejoin:miter;stroke-opacity:1"
       d="m 135,137.3622 40,0 -40,-39.999995 z"
       id="path6203"
       inkscape:connector-curvature="0" />
    <path
       style="fill:#cccccc;fill-rule:evenodd;stroke:#000000;stroke-width:1px;stroke-linecap:butt;stroke-linejoin:miter;stroke-opacity:1"
       d="m 135,67.362205 40,0 0,-30 -25,-5 -15,-5 z"
       id="path6205"
       inkscape:connector-curvature="0" />
    <path
       style="fill:#cccccc;fill-rule:evenodd;stroke:#000000;stroke-width:1px;stroke-linecap:butt;stroke-linejoin:miter;stroke-opacity:1"
       d="m 25,362.3622 0,40 35,0 -10,-35 -15,-5 z"
       id="path6145"
       inkscape:connector-curvature="0" />
    <path
       style="fill:#cccccc;fill-rule:evenodd;stroke:#000000;stroke-width:1px;stroke-linecap:butt;stroke-linejoin:miter;stroke-opacity:1"
       d="m 25,212.3622 0,40 40,0 -10,-35 -20,-5 z"
       id="path6133"
       inkscape:connector-curvature="0" />
    <path
       style="fill:#cccccc;fill-rule:evenodd;stroke:#000000;stroke-width:1px;stroke-linecap:butt;stroke-linejoin:miter;stroke-opacity:1"
       d="m 25,97.362205 0,39.999995 40,0 0,-30 -20,-9.999995 z"
       id="path6121"
       inkscape:connector-curvature="0" />
    <rect
       style="fill:#cccccc;fill-opacity:1;stroke:#000000;stroke-opacity:1"
       id="rect5751"
       width="40"
       height="40"
       x="25.076782"
       y="27.362206" />
    <path
       style="fill:#666666;fill-rule:evenodd;stroke:#000000;stroke-width:1px;stroke-linecap:butt;stroke-linejoin:miter;stroke-opacity:1"
       d="m 25,27.362205 c 0,0 40,0 40,40 l 20,0 c 0,0 0,-60.0000003 -60,-60.0000003 z"
       id="path6113"
       inkscape:connector-curvature="0" />
    <rect
       style="fill:#cccccc;fill-opacity:1;stroke:#000000;stroke-opacity:1"
       id="rect6117"
       width="40"
       height="40"
       x="25"
       y="137.3622" />
    <path
       style="fill:#808080;fill-rule:evenodd;stroke:#000000;stroke-width:1px;stroke-linecap:butt;stroke-linejoin:miter;stroke-opacity:1"
       d="m 25,97.362205 c 0,0 40,0 40,79.999995 l 20,0 c 0,0 0,-99.999995 -60,-99.999995 z"
       id="path6119"
       inkscape:connector-curvature="0" />
    <rect
       style="fill:#cccccc;fill-opacity:1;stroke:#000000;stroke-opacity:1"
       id="rect6125"
       width="40"
       height="40"
       x="25"
       y="252.3622" />
    <rect
       style="fill:#cccccc;fill-opacity:1;stroke:#000000;stroke-opacity:1"
       id="rect6127"
       width="40"
       height="40"
       x="25"
       y="292.36221" />
    <path
       style="fill:#666666;fill-rule:evenodd;stroke:#000000;stroke-width:1px;stroke-linecap:butt;stroke-linejoin:miter;stroke-opacity:1"
       d="m 25,212.3622 c 0,0 40,0 40,120 l 20,0 c 0,0 0,-140 -60,-140 z"
       id="path6131"
       inkscape:connector-curvature="0" />
    <rect
       style="fill:#cccccc;fill-opacity:1;stroke:#000000;stroke-opacity:1"
       id="rect6137"
       width="40"
       height="40"
       x="25"
       y="402.36221" />
    <rect
       style="fill:#cccccc;fill-opacity:1;stroke:#000000;stroke-opacity:1"
       id="rect6139"
       width="40"
       height="40"
       x="25"
       y="442.36221" />
    <rect
       style="fill:#cccccc;fill-opacity:1;stroke:#000000;stroke-opacity:1"
       id="rect6141"
       width="40"
       height="40"
       x="25"
       y="482.36221" />
    <path
       style="fill:#666666;fill-rule:evenodd;stroke:#000000;stroke-width:1px;stroke-linecap:butt;stroke-linejoin:miter;stroke-opacity:1"
       d="m 25,362.3622 c 0,0 40,0 40,160 l 20,0 c 0,0 0,-180 -60,-180 z"
       id="path6143"
       inkscape:connector-curvature="0" />
    <rect
       style="fill:#cccccc;fill-opacity:1;stroke:#000000;stroke-opacity:1"
       id="rect6147"
       width="40"
       height="40"
       x="95"
       y="27.362206" />
    <rect
       style="fill:#cccccc;fill-opacity:1;stroke:#000000;stroke-opacity:1"
       id="rect6151"
       width="40"
       height="40"
       x="95"
       y="97.362206" />
    <rect
       style="fill:#cccccc;fill-opacity:1;stroke:#000000;stroke-opacity:1"
       id="rect6153"
       width="40"
       height="40"
       x="95"
       y="137.3622" />
    <rect
       style="fill:#cccccc;fill-opacity:1;stroke:#000000;stroke-opacity:1"
       id="rect6157"
       width="40"
       height="40"
       x="135"
       y="137.3622" />
    <rect
       style="fill:#cccccc;fill-opacity:1;stroke:#000000;stroke-opacity:1"
       id="rect6159"
       width="40"
       height="40"
       x="95"
       y="212.3622" />
    <rect
       style="fill:#cccccc;fill-opacity:1;stroke:#000000;stroke-opacity:1"
       id="rect6163"
       width="40"
       height="40"
       x="95"
       y="252.3622" />
    <rect
       style="fill:#cccccc;fill-opacity:1;stroke:#000000;stroke-opacity:1"
       id="rect6165"
       width="40"
       height="40"
       x="135"
       y="252.3622" />
    <rect
       style="fill:#cccccc;fill-opacity:1;stroke:#000000;stroke-opacity:1"
       id="rect6167"
       width="40"
       height="40"
       x="95"
       y="292.36221" />
    <rect
       style="fill:#cccccc;fill-opacity:1;stroke:#000000;stroke-opacity:1"
       id="rect6169"
       width="40"
       height="40"
       x="135"
       y="292.36221" />
    <rect
       style="fill:#cccccc;fill-opacity:1;stroke:#000000;stroke-opacity:1"
       id="rect6171"
       width="40"
       height="40"
       x="95"
       y="362.36221" />
    <rect
       style="fill:#cccccc;fill-opacity:1;stroke:#000000;stroke-opacity:1"
       id="rect6175"
       width="40"
       height="40"
       x="95"
       y="402.36221" />
    <rect
       style="fill:#cccccc;fill-opacity:1;stroke:#000000;stroke-opacity:1"
       id="rect6179"
       width="40"
       height="40"
       x="95"
       y="442.36221" />
    <rect
       style="fill:#cccccc;fill-opacity:1;stroke:#000000;stroke-opacity:1"
       id="rect6181"
       width="40"
       height="40"
       x="135"
       y="442.36221" />
    <rect
       style="fill:#cccccc;fill-opacity:1;stroke:#000000;stroke-opacity:1"
       id="rect6183"
       width="40"
       height="40"
       x="95"
       y="482.36221" />
    <rect
       style="fill:#cccccc;fill-opacity:1;stroke:#000000;stroke-opacity:1"
       id="rect6185"
       width="40"
       height="40"
       x="135"
       y="482.36221" />
    <path
       style="fill:#666666;fill-rule:evenodd;stroke:#000000;stroke-width:1px;stroke-linecap:butt;stroke-linejoin:miter;stroke-opacity:1"
       d="m 95,27.362205 c 0,0 80,0 80,40 l 20,0 c 0,0 0,-60.0000003 -100,-60.0000003 z"
       id="path6187"
       inkscape:connector-curvature="0" />
    <path
       style="fill:#666666;fill-rule:evenodd;stroke:#000000;stroke-width:1px;stroke-linecap:butt;stroke-linejoin:miter;stroke-opacity:1"
       d="m 95,97.362205 c 0,0 80,0 80,79.999995 l 20,0 c 0,0 0,-99.999995 -100,-99.999995 z"
       id="path6189"
       inkscape:connector-curvature="0" />
    <path
       style="fill:#666666;fill-rule:evenodd;stroke:#000000;stroke-width:1px;stroke-linecap:butt;stroke-linejoin:miter;stroke-opacity:1"
       d="m 95,192.3622 0,20 c 0,0 79.64286,0.35715 80,120 l 20,0 c 0,0 0,-140 -100,-140 z"
       id="path6191"
       inkscape:connector-curvature="0" />
    <path
       style="fill:#666666;fill-rule:evenodd;stroke:#000000;stroke-width:1px;stroke-linecap:butt;stroke-linejoin:miter;stroke-opacity:1"
       d="m 95,342.3622 0,20 c 0,0 80,0 80,160 0,0 20,0 20,0 0,0 0,-180 -100,-180 z"
       id="path6193"
       inkscape:connector-curvature="0" />
    <rect
       style="fill:#cccccc;fill-opacity:1;stroke:#000000;stroke-opacity:1"
       id="rect6207"
       width="40"
       height="40"
       x="205"
       y="27.362206" />
    <rect
       style="fill:#cccccc;fill-opacity:1;stroke:#000000;stroke-opacity:1"
       id="rect6209"
       width="40"
       height="40"
       x="245"
       y="27.362206" />
    <rect
       style="fill:#cccccc;fill-opacity:1;stroke:#000000;stroke-opacity:1"
       id="rect6213"
       width="40"
       height="40"
       x="205"
       y="97.362206" />
    <rect
       style="fill:#cccccc;fill-opacity:1;stroke:#000000;stroke-opacity:1"
       id="rect6215"
       width="40"
       height="40"
       x="205"
       y="137.3622" />
    <rect
       style="fill:#cccccc;fill-opacity:1;stroke:#000000;stroke-opacity:1"
       id="rect6217"
       width="40"
       height="40"
       x="245"
       y="97.362206" />
    <rect
       style="fill:#cccccc;fill-opacity:1;stroke:#000000;stroke-opacity:1"
       id="rect6219"
       width="40"
       height="40"
       x="245"
       y="137.3622" />
    <rect
       style="fill:#cccccc;fill-opacity:1;stroke:#000000;stroke-opacity:1"
       id="rect6223"
       width="40"
       height="40"
       x="285"
       y="137.3622" />
    <rect
       style="fill:#cccccc;fill-opacity:1;stroke:#000000;stroke-opacity:1"
       id="rect6225"
       width="40"
       height="40"
       x="205"
       y="212.3622" />
    <rect
       style="fill:#cccccc;fill-opacity:1;stroke:#000000;stroke-opacity:1"
       id="rect6227"
       width="40"
       height="40"
       x="205"
       y="252.3622" />
    <rect
       style="fill:#cccccc;fill-opacity:1;stroke:#000000;stroke-opacity:1"
       id="rect6229"
       width="40"
       height="40"
       x="205"
       y="292.36221" />
    <rect
       style="fill:#cccccc;fill-opacity:1;stroke:#000000;stroke-opacity:1"
       id="rect6233"
       width="40"
       height="40"
       x="245"
       y="252.3622" />
    <rect
       style="fill:#cccccc;fill-opacity:1;stroke:#000000;stroke-opacity:1"
       id="rect6235"
       width="40"
       height="40"
       x="245"
       y="292.36221" />
    <rect
       style="fill:#cccccc;fill-opacity:1;stroke:#000000;stroke-opacity:1"
       id="rect6241"
       width="40"
       height="40"
       x="285"
       y="292.36221" />
    <rect
       style="fill:#cccccc;fill-opacity:1;stroke:#000000;stroke-opacity:1"
       id="rect6243"
       width="40"
       height="40"
       x="205"
       y="362.36221" />
    <rect
       style="fill:#cccccc;fill-opacity:1;stroke:#000000;stroke-opacity:1"
       id="rect6245"
       width="40"
       height="40"
       x="205"
       y="402.36221" />
    <rect
       style="fill:#cccccc;fill-opacity:1;stroke:#000000;stroke-opacity:1"
       id="rect6247"
       width="40"
       height="40"
       x="205"
       y="442.36221" />
    <rect
       style="fill:#cccccc;fill-opacity:1;stroke:#000000;stroke-opacity:1"
       id="rect6249"
       width="40"
       height="40"
       x="205"
       y="482.36221" />
    <rect
       style="fill:#cccccc;fill-opacity:1;stroke:#000000;stroke-opacity:1"
       id="rect6253"
       width="40"
       height="40"
       x="245"
       y="402.36221" />
    <rect
       style="fill:#cccccc;fill-opacity:1;stroke:#000000;stroke-opacity:1"
       id="rect6255"
       width="40"
       height="40"
       x="245"
       y="442.36221" />
    <rect
       style="fill:#cccccc;fill-opacity:1;stroke:#000000;stroke-opacity:1"
       id="rect6257"
       width="40"
       height="40"
       x="245"
       y="482.36221" />
    <rect
       style="fill:#cccccc;fill-opacity:1;stroke:#000000;stroke-opacity:1"
       id="rect6263"
       width="40"
       height="40"
       x="285"
       y="442.36221" />
    <rect
       style="fill:#cccccc;fill-opacity:1;stroke:#000000;stroke-opacity:1"
       id="rect6265"
       width="40"
       height="40"
       x="285"
       y="482.36221" />
    <path
       style="fill:#666666;fill-rule:evenodd;stroke:#000000;stroke-width:1px;stroke-linecap:butt;stroke-linejoin:miter;stroke-opacity:1"
       d="m 205,7.3622047 0,20.0000003 c 0,0 120,0 120,40 0,0 20,0 20,0 0,0 0,-60.0000003 -140,-60.0000003 z"
       id="path6267"
       inkscape:connector-curvature="0" />
    <path
       style="fill:#666666;fill-rule:evenodd;stroke:#000000;stroke-width:1px;stroke-linecap:butt;stroke-linejoin:miter;stroke-opacity:1"
       d="m 205,77.362205 0,20 c 0,0 120,0 120,79.999995 l 20,0 c 0,0 0,-99.999995 -140,-99.999995 z"
       id="path6269"
       inkscape:connector-curvature="0" />
    <path
       style="fill:#666666;fill-rule:evenodd;stroke:#000000;stroke-width:1px;stroke-linecap:butt;stroke-linejoin:miter;stroke-opacity:1"
       d="m 205,192.3622 0,20 c 0,0 120,0 120,120 l 20,0 c 0,0 0,-140 -140,-140"
       id="path6271"
       inkscape:connector-curvature="0" />
    <path
       style="fill:#666666;fill-rule:evenodd;stroke:#000000;stroke-width:1px;stroke-linecap:butt;stroke-linejoin:miter;stroke-opacity:1"
       d="m 205,342.3622 0,20 c 0,0 120,0 120,160 l 20,0 c 0,0 0,-180 -140,-180"
       id="path6273"
       inkscape:connector-curvature="0" />
    <rect
       style="fill:#cccccc;fill-opacity:1;stroke:#000000;stroke-opacity:1"
       id="rect6291"
       width="40"
       height="40"
       x="355"
       y="27.362206" />
    <rect
       style="fill:#cccccc;fill-opacity:1;stroke:#000000;stroke-opacity:1"
       id="rect6293"
       width="40"
       height="40"
       x="395"
       y="27.362206" />
    <rect
       style="fill:#cccccc;fill-opacity:1;stroke:#000000;stroke-opacity:1"
       id="rect6295"
       width="40"
       height="40"
       x="435"
       y="27.362206" />
    <rect
       style="fill:#cccccc;fill-opacity:1;stroke:#000000;stroke-opacity:1"
       id="rect6301"
       width="40"
       height="40"
       x="355"
       y="97.362206" />
    <rect
       style="fill:#cccccc;fill-opacity:1;stroke:#000000;stroke-opacity:1"
       id="rect6303"
       width="40"
       height="40"
       x="355"
       y="137.3622" />
    <rect
       style="fill:#cccccc;fill-opacity:1;stroke:#000000;stroke-opacity:1"
       id="rect6305"
       width="40"
       height="40"
       x="395"
       y="97.362206" />
    <rect
       style="fill:#cccccc;fill-opacity:1;stroke:#000000;stroke-opacity:1"
       id="rect6307"
       width="40"
       height="40"
       x="395"
       y="137.3622" />
    <rect
       style="fill:#cccccc;fill-opacity:1;stroke:#000000;stroke-opacity:1"
       id="rect6311"
       width="40"
       height="40"
       x="435"
       y="137.3622" />
    <rect
       style="fill:#cccccc;fill-opacity:1;stroke:#000000;stroke-opacity:1"
       id="rect6315"
       width="40"
       height="40"
       x="475"
       y="137.3622" />
    <rect
       style="fill:#cccccc;fill-opacity:1;stroke:#000000;stroke-opacity:1"
       id="rect6317"
       width="40"
       height="40"
       x="355"
       y="212.3622" />
    <rect
       style="fill:#cccccc;fill-opacity:1;stroke:#000000;stroke-opacity:1"
       id="rect6319"
       width="40"
       height="40"
       x="395"
       y="212.3622" />
    <rect
       style="fill:#cccccc;fill-opacity:1;stroke:#000000;stroke-opacity:1"
       id="rect6321"
       width="40"
       height="40"
       x="355"
       y="252.3622" />
    <rect
       style="fill:#cccccc;fill-opacity:1;stroke:#000000;stroke-opacity:1"
       id="rect6325"
       width="40"
       height="40"
       x="355"
       y="292.36221" />
    <rect
       style="fill:#cccccc;fill-opacity:1;stroke:#000000;stroke-opacity:1"
       id="rect6329"
       width="40"
       height="40"
       x="395"
       y="252.3622" />
    <rect
       style="fill:#cccccc;fill-opacity:1;stroke:#000000;stroke-opacity:1"
       id="rect6331"
       width="40"
       height="40"
       x="395"
       y="292.36221" />
    <rect
       style="fill:#cccccc;fill-opacity:1;stroke:#000000;stroke-opacity:1"
       id="rect6333"
       width="40"
       height="40"
       x="435"
       y="252.3622" />
    <rect
       style="fill:#cccccc;fill-opacity:1;stroke:#000000;stroke-opacity:1"
       id="rect6335"
       width="40"
       height="40"
       x="435"
       y="292.36221" />
    <rect
       style="fill:#cccccc;fill-opacity:1;stroke:#000000;stroke-opacity:1"
       id="rect6339"
       width="40"
       height="40"
       x="475"
       y="292.36221" />
    <rect
       style="fill:#cccccc;fill-opacity:1;stroke:#000000;stroke-opacity:1"
       id="rect6341"
       width="40"
       height="40"
       x="355"
       y="362.36221" />
    <rect
       style="fill:#cccccc;fill-opacity:1;stroke:#000000;stroke-opacity:1"
       id="rect6343"
       width="40"
       height="40"
       x="355"
       y="402.36221" />
    <rect
       style="fill:#cccccc;fill-opacity:1;stroke:#000000;stroke-opacity:1"
       id="rect6345"
       width="40"
       height="40"
       x="355"
       y="442.36221" />
    <rect
       style="fill:#cccccc;fill-opacity:1;stroke:#000000;stroke-opacity:1"
       id="rect6347"
       width="40"
       height="40"
       x="355"
       y="482.36221" />
    <rect
       style="fill:#cccccc;fill-opacity:1;stroke:#000000;stroke-opacity:1"
       id="rect6349"
       width="40"
       height="40"
       x="395"
       y="362.36221" />
    <rect
       style="fill:#cccccc;fill-opacity:1;stroke:#000000;stroke-opacity:1"
       id="rect6351"
       width="40"
       height="40"
       x="395"
       y="402.36221" />
    <rect
       style="fill:#cccccc;fill-opacity:1;stroke:#000000;stroke-opacity:1"
       id="rect6353"
       width="40"
       height="40"
       x="395"
       y="442.36221" />
    <rect
       style="fill:#cccccc;fill-opacity:1;stroke:#000000;stroke-opacity:1"
       id="rect6355"
       width="40"
       height="40"
       x="395"
       y="482.36221" />
    <rect
       style="fill:#cccccc;fill-opacity:1;stroke:#000000;stroke-opacity:1"
       id="rect6359"
       width="40"
       height="40"
       x="435"
       y="402.36221" />
    <rect
       style="fill:#cccccc;fill-opacity:1;stroke:#000000;stroke-opacity:1"
       id="rect6361"
       width="40"
       height="40"
       x="435"
       y="442.36221" />
    <rect
       style="fill:#cccccc;fill-opacity:1;stroke:#000000;stroke-opacity:1"
       id="rect6363"
       width="40"
       height="40"
       x="435"
       y="482.36221" />
    <rect
       style="fill:#cccccc;fill-opacity:1;stroke:#000000;stroke-opacity:1"
       id="rect6369"
       width="40"
       height="40"
       x="475"
       y="442.36221" />
    <rect
       style="fill:#cccccc;fill-opacity:1;stroke:#000000;stroke-opacity:1"
       id="rect6371"
       width="40"
       height="40"
       x="475"
       y="482.36221" />
    <path
       style="fill:#666666;fill-rule:evenodd;stroke:#000000;stroke-width:1px;stroke-linecap:butt;stroke-linejoin:miter;stroke-opacity:1"
       d="m 355,7.3622047 0,20.0000003 c 0,0 160,0 160,40 l 20,0 c 0,0 0,-60.0000003 -180,-60.0000003 z"
       id="path6373"
       inkscape:connector-curvature="0" />
    <path
       style="fill:#666666;fill-rule:evenodd;stroke:#000000;stroke-width:1px;stroke-linecap:butt;stroke-linejoin:miter;stroke-opacity:1"
       d="m 355,77.362205 0,20 c 0,0 160,0 160,79.999995 l 20,0 c 0,0 0,-99.999995 -180,-99.999995 z"
       id="path6375"
       inkscape:connector-curvature="0" />
    <path
       style="fill:#666666;fill-rule:evenodd;stroke:#000000;stroke-width:1px;stroke-linecap:butt;stroke-linejoin:miter;stroke-opacity:1"
       d="m 355,192.3622 0,20 c 0,0 160,0 160,120 5,0 20,0 20,0 0,0 0,-140 -180,-140 z"
       id="path6377"
       inkscape:connector-curvature="0" />
    <path
       style="fill:#666666;fill-rule:evenodd;stroke:#000000;stroke-width:1px;stroke-linecap:butt;stroke-linejoin:miter;stroke-opacity:1"
       d="m 355,342.3622 0,20 c 0,0 160,1e-5 160,160 0,0 20,0 20,0 0,0 0,-180 -180,-180 z"
       id="path6379"
       inkscape:connector-curvature="0" />
  </g>
</svg>
