<?xml version="1.0" encoding="UTF-8" standalone="no"?>
<!-- Created with Inkscape (http://www.inkscape.org/) -->

<svg
   xmlns:dc="http://purl.org/dc/elements/1.1/"
   xmlns:cc="http://creativecommons.org/ns#"
   xmlns:rdf="http://www.w3.org/1999/02/22-rdf-syntax-ns#"
   xmlns:svg="http://www.w3.org/2000/svg"
   xmlns="http://www.w3.org/2000/svg"
   xmlns:sodipodi="http://sodipodi.sourceforge.net/DTD/sodipodi-0.dtd"
   xmlns:inkscape="http://www.inkscape.org/namespaces/inkscape"
   width="210mm"
   height="297mm"
   viewBox="0 0 744.09448819 1052.3622047"
   id="svg2"
   version="1.1"
   inkscape:version="0.91 r13725"
   sodipodi:docname="dead_end.svg">
  <defs
     id="defs4" />
  <sodipodi:namedview
     id="base"
     pagecolor="#ffffff"
     bordercolor="#666666"
     borderopacity="1.0"
     inkscape:pageopacity="0.0"
     inkscape:pageshadow="2"
     inkscape:zoom="1.4"
     inkscape:cx="423.87757"
     inkscape:cy="698.2236"
     inkscape:document-units="px"
     inkscape:current-layer="layer1"
     showgrid="true"
     inkscape:window-width="2560"
     inkscape:window-height="1536"
     inkscape:window-x="0"
     inkscape:window-y="27"
     inkscape:window-maximized="1">
    <inkscape:grid
       type="xygrid"
       id="grid4136" />
  </sodipodi:namedview>
  <metadata
     id="metadata7">
    <rdf:RDF>
      <cc:Work
         rdf:about="">
        <dc:format>image/svg+xml</dc:format>
        <dc:type
           rdf:resource="http://purl.org/dc/dcmitype/StillImage" />
        <dc:title></dc:title>
      </cc:Work>
    </rdf:RDF>
  </metadata>
  <g
     inkscape:label="Layer 1"
     inkscape:groupmode="layer"
     id="layer1">
    <rect
       style="fill:#cccccc;fill-opacity:1;stroke:#000000;stroke-opacity:1"
       id="rect5751"
       width="40"
       height="40"
       x="25.076782"
       y="27.362206" />
    <rect
       style="fill:#cccccc;fill-opacity:1;stroke:#000000;stroke-opacity:1"
       id="rect5753"
       width="40"
       height="40"
       x="114.599"
       y="27.362206" />
    <rect
       style="fill:#cccccc;fill-opacity:1;stroke:#000000;stroke-opacity:1"
       id="rect5755"
       width="40"
       height="40"
       x="154.59901"
       y="27.362206" />
    <rect
       style="fill:#cccccc;fill-opacity:1;stroke:#000000;stroke-opacity:1"
       id="rect5757"
       width="40"
       height="40"
       x="245.0051"
       y="27.235937" />
    <rect
       style="fill:#cccccc;fill-opacity:1;stroke:#000000;stroke-opacity:1"
       id="rect5759"
       width="40"
       height="40"
       x="285.0051"
       y="27.235937" />
    <rect
       style="fill:#cccccc;fill-opacity:1;stroke:#000000;stroke-opacity:1"
       id="rect5761"
       width="40"
       height="40"
       x="325.0051"
       y="27.235937" />
    <rect
       style="fill:#cccccc;fill-opacity:1;stroke:#000000;stroke-opacity:1"
       id="rect5763"
       width="40"
       height="40"
       x="414.9061"
       y="27.362206" />
    <rect
       style="fill:#cccccc;fill-opacity:1;stroke:#000000;stroke-opacity:1"
       id="rect5765"
       width="40"
       height="40"
       x="454.9061"
       y="27.362206" />
    <rect
       style="fill:#cccccc;fill-opacity:1;stroke:#000000;stroke-opacity:1"
       id="rect5767"
       width="40"
       height="40"
       x="494.9061"
       y="27.362206" />
    <rect
       style="fill:#cccccc;fill-opacity:1;stroke:#000000;stroke-opacity:1"
       id="rect5769"
       width="40"
       height="40"
       x="534.90607"
       y="27.362206" />
    <rect
       style="fill:#cccccc;fill-opacity:1;stroke:#000000;stroke-opacity:1"
       id="rect5771"
       width="40"
       height="40"
       x="24.824242"
       y="97.537964" />
    <rect
       style="fill:#cccccc;fill-opacity:1;stroke:#000000;stroke-opacity:1"
       id="rect5773"
       width="40"
       height="40"
       x="24.824242"
       y="137.53795" />
    <rect
       style="fill:#cccccc;fill-opacity:1;stroke:#000000;stroke-opacity:1"
       id="rect5775"
       width="40"
       height="40"
       x="114.85154"
       y="97.411697" />
    <rect
       style="fill:#cccccc;fill-opacity:1;stroke:#000000;stroke-opacity:1"
       id="rect5777"
       width="40"
       height="40"
       x="114.85154"
       y="137.41168" />
    <rect
       style="fill:#cccccc;fill-opacity:1;stroke:#000000;stroke-opacity:1"
       id="rect5779"
       width="40"
       height="40"
       x="154.85153"
       y="97.411697" />
    <rect
       style="fill:#cccccc;fill-opacity:1;stroke:#000000;stroke-opacity:1"
       id="rect5781"
       width="40"
       height="40"
       x="154.85153"
       y="137.41168" />
    <rect
       style="fill:#cccccc;fill-opacity:1;stroke:#000000;stroke-opacity:1"
       id="rect5783"
       width="40"
       height="40"
       x="245.0051"
       y="97.285431" />
    <rect
       style="fill:#cccccc;fill-opacity:1;stroke:#000000;stroke-opacity:1"
       id="rect5785"
       width="40"
       height="40"
       x="285.0051"
       y="97.285431" />
    <rect
       style="fill:#cccccc;fill-opacity:1;stroke:#000000;stroke-opacity:1"
       id="rect5787"
       width="40"
       height="40"
       x="325.0051"
       y="97.285431" />
    <rect
       style="fill:#cccccc;fill-opacity:1;stroke:#000000;stroke-opacity:1"
       id="rect5789"
       width="40"
       height="40"
       x="245.0051"
       y="137.28542" />
    <rect
       style="fill:#cccccc;fill-opacity:1;stroke:#000000;stroke-opacity:1"
       id="rect5791"
       width="40"
       height="40"
       x="285.0051"
       y="137.28542" />
    <rect
       style="fill:#cccccc;fill-opacity:1;stroke:#000000;stroke-opacity:1"
       id="rect5793"
       width="40"
       height="40"
       x="325.0051"
       y="137.28542" />
    <rect
       style="fill:#cccccc;fill-opacity:1;stroke:#000000;stroke-opacity:1"
       id="rect5795"
       width="40"
       height="40"
       x="414.69687"
       y="97.455025" />
    <rect
       style="fill:#cccccc;fill-opacity:1;stroke:#000000;stroke-opacity:1"
       id="rect5797"
       width="40"
       height="40"
       x="414.69687"
       y="137.45502" />
    <rect
       style="fill:#cccccc;fill-opacity:1;stroke:#000000;stroke-opacity:1"
       id="rect5799"
       width="40"
       height="40"
       x="454.69687"
       y="97.455025" />
    <rect
       style="fill:#cccccc;fill-opacity:1;stroke:#000000;stroke-opacity:1"
       id="rect5801"
       width="40"
       height="40"
       x="454.69687"
       y="137.45502" />
    <rect
       style="fill:#cccccc;fill-opacity:1;stroke:#000000;stroke-opacity:1"
       id="rect5803"
       width="40"
       height="40"
       x="494.69687"
       y="97.455025" />
    <rect
       style="fill:#cccccc;fill-opacity:1;stroke:#000000;stroke-opacity:1"
       id="rect5805"
       width="40"
       height="40"
       x="534.69684"
       y="97.455025" />
    <rect
       style="fill:#cccccc;fill-opacity:1;stroke:#000000;stroke-opacity:1"
       id="rect5807"
       width="40"
       height="40"
       x="494.69687"
       y="137.45502" />
    <rect
       style="fill:#cccccc;fill-opacity:1;stroke:#000000;stroke-opacity:1"
       id="rect5809"
       width="40"
       height="40"
       x="534.69684"
       y="137.45502" />
    <rect
       style="fill:#cccccc;fill-opacity:1;stroke:#000000;stroke-opacity:1"
       id="rect5827"
       width="40"
       height="40"
       x="24.993841"
       y="207.28261" />
    <rect
       style="fill:#cccccc;fill-opacity:1;stroke:#000000;stroke-opacity:1"
       id="rect5829"
       width="40"
       height="40"
       x="24.993841"
       y="247.28262" />
    <rect
       style="fill:#cccccc;fill-opacity:1;stroke:#000000;stroke-opacity:1"
       id="rect5831"
       width="40"
       height="40"
       x="24.993841"
       y="287.28262" />
    <rect
       style="fill:#cccccc;fill-opacity:1;stroke:#000000;stroke-opacity:1"
       id="rect5833"
       width="40"
       height="40"
       x="114.86423"
       y="207.46118" />
    <rect
       style="fill:#cccccc;fill-opacity:1;stroke:#000000;stroke-opacity:1"
       id="rect5835"
       width="40"
       height="40"
       x="114.86423"
       y="247.4612" />
    <rect
       style="fill:#cccccc;fill-opacity:1;stroke:#000000;stroke-opacity:1"
       id="rect5837"
       width="40"
       height="40"
       x="114.86423"
       y="287.46118" />
    <rect
       style="fill:#cccccc;fill-opacity:1;stroke:#000000;stroke-opacity:1"
       id="rect5839"
       width="40"
       height="40"
       x="154.86423"
       y="207.46118" />
    <rect
       style="fill:#cccccc;fill-opacity:1;stroke:#000000;stroke-opacity:1"
       id="rect5841"
       width="40"
       height="40"
       x="154.86423"
       y="247.4612" />
    <rect
       style="fill:#cccccc;fill-opacity:1;stroke:#000000;stroke-opacity:1"
       id="rect5843"
       width="40"
       height="40"
       x="154.86423"
       y="287.46118" />
    <rect
       style="fill:#cccccc;fill-opacity:1;stroke:#000000;stroke-opacity:1"
       id="rect5845"
       width="40"
       height="40"
       x="245.0051"
       y="207.46118" />
    <rect
       style="fill:#cccccc;fill-opacity:1;stroke:#000000;stroke-opacity:1"
       id="rect5847"
       width="40"
       height="40"
       x="245.0051"
       y="247.4612" />
    <rect
       style="fill:#cccccc;fill-opacity:1;stroke:#000000;stroke-opacity:1"
       id="rect5849"
       width="40"
       height="40"
       x="245.0051"
       y="287.46118" />
    <rect
       style="fill:#cccccc;fill-opacity:1;stroke:#000000;stroke-opacity:1"
       id="rect5851"
       width="40"
       height="40"
       x="285.0051"
       y="207.46118" />
    <rect
       style="fill:#cccccc;fill-opacity:1;stroke:#000000;stroke-opacity:1"
       id="rect5853"
       width="40"
       height="40"
       x="285.0051"
       y="247.4612" />
    <rect
       style="fill:#cccccc;fill-opacity:1;stroke:#000000;stroke-opacity:1"
       id="rect5855"
       width="40"
       height="40"
       x="285.0051"
       y="287.46118" />
    <rect
       style="fill:#cccccc;fill-opacity:1;stroke:#000000;stroke-opacity:1"
       id="rect5857"
       width="40"
       height="40"
       x="325.0051"
       y="207.46118" />
    <rect
       style="fill:#cccccc;fill-opacity:1;stroke:#000000;stroke-opacity:1"
       id="rect5859"
       width="40"
       height="40"
       x="325.0051"
       y="247.4612" />
    <rect
       style="fill:#cccccc;fill-opacity:1;stroke:#000000;stroke-opacity:1"
       id="rect5861"
       width="40"
       height="40"
       x="325.0051"
       y="287.46118" />
    <rect
       style="fill:#cccccc;fill-opacity:1;stroke:#000000;stroke-opacity:1"
       id="rect5863"
       width="40"
       height="40"
       x="415.05402"
       y="207.46118" />
    <rect
       style="fill:#cccccc;fill-opacity:1;stroke:#000000;stroke-opacity:1"
       id="rect5865"
       width="40"
       height="40"
       x="415.05402"
       y="247.4612" />
    <rect
       style="fill:#cccccc;fill-opacity:1;stroke:#000000;stroke-opacity:1"
       id="rect5867"
       width="40"
       height="40"
       x="415.05402"
       y="287.46118" />
    <rect
       style="fill:#cccccc;fill-opacity:1;stroke:#000000;stroke-opacity:1"
       id="rect5869"
       width="40"
       height="40"
       x="455.05402"
       y="207.46118" />
    <rect
       style="fill:#cccccc;fill-opacity:1;stroke:#000000;stroke-opacity:1"
       id="rect5871"
       width="40"
       height="40"
       x="455.05402"
       y="247.4612" />
    <rect
       style="fill:#cccccc;fill-opacity:1;stroke:#000000;stroke-opacity:1"
       id="rect5873"
       width="40"
       height="40"
       x="455.05402"
       y="287.46118" />
    <rect
       style="fill:#cccccc;fill-opacity:1;stroke:#000000;stroke-opacity:1"
       id="rect5875"
       width="40"
       height="40"
       x="495.05402"
       y="207.46118" />
    <rect
       style="fill:#cccccc;fill-opacity:1;stroke:#000000;stroke-opacity:1"
       id="rect5877"
       width="40"
       height="40"
       x="495.05402"
       y="247.4612" />
    <rect
       style="fill:#cccccc;fill-opacity:1;stroke:#000000;stroke-opacity:1"
       id="rect5879"
       width="40"
       height="40"
       x="495.05402"
       y="287.46118" />
    <rect
       style="fill:#cccccc;fill-opacity:1;stroke:#000000;stroke-opacity:1"
       id="rect5881"
       width="40"
       height="40"
       x="535.05402"
       y="207.46118" />
    <rect
       style="fill:#cccccc;fill-opacity:1;stroke:#000000;stroke-opacity:1"
       id="rect5883"
       width="40"
       height="40"
       x="535.05402"
       y="247.4612" />
    <rect
       style="fill:#cccccc;fill-opacity:1;stroke:#000000;stroke-opacity:1"
       id="rect5885"
       width="40"
       height="40"
       x="535.05402"
       y="287.46118" />
    <rect
       style="fill:#cccccc;fill-opacity:1;stroke:#000000;stroke-opacity:1"
       id="rect5905"
       width="40"
       height="40"
       x="25.024479"
       y="357.40607" />
    <rect
       style="fill:#cccccc;fill-opacity:1;stroke:#000000;stroke-opacity:1"
       id="rect5907"
       width="40"
       height="40"
       x="25.024479"
       y="397.40607" />
    <rect
       style="fill:#cccccc;fill-opacity:1;stroke:#000000;stroke-opacity:1"
       id="rect5909"
       width="40"
       height="40"
       x="25.024479"
       y="437.40607" />
    <rect
       style="fill:#cccccc;fill-opacity:1;stroke:#000000;stroke-opacity:1"
       id="rect5911"
       width="40"
       height="40"
       x="25.024479"
       y="477.40604" />
    <rect
       style="fill:#cccccc;fill-opacity:1;stroke:#000000;stroke-opacity:1"
       id="rect5921"
       width="40"
       height="40"
       x="114.89487"
       y="357.22751" />
    <rect
       style="fill:#cccccc;fill-opacity:1;stroke:#000000;stroke-opacity:1"
       id="rect5923"
       width="40"
       height="40"
       x="154.89488"
       y="357.22751" />
    <rect
       style="fill:#cccccc;fill-opacity:1;stroke:#000000;stroke-opacity:1"
       id="rect5925"
       width="40"
       height="40"
       x="114.89487"
       y="397.22751" />
    <rect
       style="fill:#cccccc;fill-opacity:1;stroke:#000000;stroke-opacity:1"
       id="rect5927"
       width="40"
       height="40"
       x="154.89488"
       y="397.22751" />
    <rect
       style="fill:#cccccc;fill-opacity:1;stroke:#000000;stroke-opacity:1"
       id="rect5929"
       width="40"
       height="40"
       x="114.89487"
       y="437.22751" />
    <rect
       style="fill:#cccccc;fill-opacity:1;stroke:#000000;stroke-opacity:1"
       id="rect5931"
       width="40"
       height="40"
       x="114.89487"
       y="477.22748" />
    <rect
       style="fill:#cccccc;fill-opacity:1;stroke:#000000;stroke-opacity:1"
       id="rect5933"
       width="40"
       height="40"
       x="154.89488"
       y="437.22751" />
    <rect
       style="fill:#cccccc;fill-opacity:1;stroke:#000000;stroke-opacity:1"
       id="rect5935"
       width="40"
       height="40"
       x="154.89488"
       y="477.22748" />
    <rect
       style="fill:#cccccc;fill-opacity:1;stroke:#000000;stroke-opacity:1"
       id="rect5937"
       width="40"
       height="40"
       x="244.67859"
       y="357.40607" />
    <rect
       style="fill:#cccccc;fill-opacity:1;stroke:#000000;stroke-opacity:1"
       id="rect5939"
       width="40"
       height="40"
       x="284.67859"
       y="357.40607" />
    <rect
       style="fill:#cccccc;fill-opacity:1;stroke:#000000;stroke-opacity:1"
       id="rect5941"
       width="40"
       height="40"
       x="324.67859"
       y="357.40607" />
    <rect
       style="fill:#cccccc;fill-opacity:1;stroke:#000000;stroke-opacity:1"
       id="rect5943"
       width="40"
       height="40"
       x="244.67859"
       y="397.40607" />
    <rect
       style="fill:#cccccc;fill-opacity:1;stroke:#000000;stroke-opacity:1"
       id="rect5945"
       width="40"
       height="40"
       x="244.67859"
       y="437.40607" />
    <rect
       style="fill:#cccccc;fill-opacity:1;stroke:#000000;stroke-opacity:1"
       id="rect5947"
       width="40"
       height="40"
       x="244.67859"
       y="477.40604" />
    <rect
       style="fill:#cccccc;fill-opacity:1;stroke:#000000;stroke-opacity:1"
       id="rect5949"
       width="40"
       height="40"
       x="284.67859"
       y="397.40607" />
    <rect
       style="fill:#cccccc;fill-opacity:1;stroke:#000000;stroke-opacity:1"
       id="rect5951"
       width="40"
       height="40"
       x="284.67859"
       y="437.40607" />
    <rect
       style="fill:#cccccc;fill-opacity:1;stroke:#000000;stroke-opacity:1"
       id="rect5953"
       width="40"
       height="40"
       x="284.67859"
       y="477.40604" />
    <rect
       style="fill:#cccccc;fill-opacity:1;stroke:#000000;stroke-opacity:1"
       id="rect5955"
       width="40"
       height="40"
       x="324.67859"
       y="397.40607" />
    <rect
       style="fill:#cccccc;fill-opacity:1;stroke:#000000;stroke-opacity:1"
       id="rect5957"
       width="40"
       height="40"
       x="324.67859"
       y="437.40607" />
    <rect
       style="fill:#cccccc;fill-opacity:1;stroke:#000000;stroke-opacity:1"
       id="rect5959"
       width="40"
       height="40"
       x="324.67859"
       y="477.40604" />
    <rect
       style="fill:#cccccc;fill-opacity:1;stroke:#000000;stroke-opacity:1"
       id="rect5961"
       width="40"
       height="40"
       x="414.9061"
       y="357.40607"
       ry="0" />
    <rect
       style="fill:#cccccc;fill-opacity:1;stroke:#000000;stroke-opacity:1"
       id="rect5963"
       width="40"
       height="40"
       x="414.9061"
       y="397.40607" />
    <rect
       style="fill:#cccccc;fill-opacity:1;stroke:#000000;stroke-opacity:1"
       id="rect5965"
       width="40"
       height="40"
       x="414.9061"
       y="437.40607" />
    <rect
       style="fill:#cccccc;fill-opacity:1;stroke:#000000;stroke-opacity:1"
       id="rect5967"
       width="40"
       height="40"
       x="414.9061"
       y="477.40604" />
    <rect
       style="fill:#cccccc;fill-opacity:1;stroke:#000000;stroke-opacity:1"
       id="rect5969"
       width="40"
       height="40"
       x="454.9061"
       y="357.40607" />
    <rect
       style="fill:#cccccc;fill-opacity:1;stroke:#000000;stroke-opacity:1"
       id="rect5971"
       width="40"
       height="40"
       x="454.9061"
       y="397.40607" />
    <rect
       style="fill:#cccccc;fill-opacity:1;stroke:#000000;stroke-opacity:1"
       id="rect5973"
       width="40"
       height="40"
       x="454.9061"
       y="437.40607" />
    <rect
       style="fill:#cccccc;fill-opacity:1;stroke:#000000;stroke-opacity:1"
       id="rect5975"
       width="40"
       height="40"
       x="454.9061"
       y="477.40604" />
    <rect
       style="fill:#cccccc;fill-opacity:1;stroke:#000000;stroke-opacity:1"
       id="rect5977"
       width="40"
       height="40"
       x="494.9061"
       y="357.40607" />
    <rect
       style="fill:#cccccc;fill-opacity:1;stroke:#000000;stroke-opacity:1"
       id="rect5979"
       width="40"
       height="40"
       x="494.9061"
       y="397.40607" />
    <rect
       style="fill:#cccccc;fill-opacity:1;stroke:#000000;stroke-opacity:1"
       id="rect5981"
       width="40"
       height="40"
       x="494.9061"
       y="437.40607" />
    <rect
       style="fill:#cccccc;fill-opacity:1;stroke:#000000;stroke-opacity:1"
       id="rect5983"
       width="40"
       height="40"
       x="494.9061"
       y="477.40604" />
    <rect
       style="fill:#cccccc;fill-opacity:1;stroke:#000000;stroke-opacity:1"
       id="rect5985"
       width="40"
       height="40"
       x="534.90607"
       y="357.40607" />
    <rect
       style="fill:#cccccc;fill-opacity:1;stroke:#000000;stroke-opacity:1"
       id="rect5987"
       width="40"
       height="40"
       x="534.90607"
       y="397.40607" />
    <rect
       style="fill:#cccccc;fill-opacity:1;stroke:#000000;stroke-opacity:1"
       id="rect5989"
       width="40"
       height="40"
       x="534.90607"
       y="437.40607" />
    <rect
       style="fill:#cccccc;fill-opacity:1;stroke:#000000;stroke-opacity:1"
       id="rect5991"
       width="40"
       height="40"
       x="534.90607"
       y="477.40604" />
    <path
       style="fill:#666666;fill-rule:evenodd;stroke:#000000;stroke-width:1px;stroke-linecap:butt;stroke-linejoin:miter;stroke-opacity:1"
       d="m 25,67.362205 -20,0 0,-60.0000003 80,0 0,60.0000003 -20,0 0,-40 -40,0 z"
       id="path6033"
       inkscape:connector-curvature="0" />
    <path
       style="fill:#666666;fill-rule:evenodd;stroke:#000000;stroke-width:1px;stroke-linecap:butt;stroke-linejoin:miter;stroke-opacity:1"
       d="m 115,67.362205 -20,0 0,-60.0000003 120,0 0,60.0000003 -20,0 0,-40 -80,0 z"
       id="path6035"
       inkscape:connector-curvature="0" />
    <path
       style="fill:#666666;fill-rule:evenodd;stroke:#000000;stroke-width:1px;stroke-linecap:butt;stroke-linejoin:miter;stroke-opacity:1"
       d="m 245,67.362205 -20,0 0,-60.0000003 160,0 0,60.0000003 -20,0 0,-40 -120,0 z"
       id="path6037"
       inkscape:connector-curvature="0" />
    <path
       style="fill:#666666;fill-rule:evenodd;stroke:#000000;stroke-width:1px;stroke-linecap:butt;stroke-linejoin:miter;stroke-opacity:1"
       d="m 415,67.362205 -20,0 0,-60.0000003 200,0 0,60.0000003 -20,0 0,-40 -160,0 z"
       id="path6039"
       inkscape:connector-curvature="0" />
    <path
       style="fill:#666666;fill-rule:evenodd;stroke:#000000;stroke-width:1px;stroke-linecap:butt;stroke-linejoin:miter;stroke-opacity:1"
       d="m 25,177.3622 -20,0 0,-99.999995 80,0 0,99.999995 -20,0 0,-79.999995 -40,0 z"
       id="path6041"
       inkscape:connector-curvature="0" />
    <path
       style="fill:#666666;fill-rule:evenodd;stroke:#000000;stroke-width:1px;stroke-linecap:butt;stroke-linejoin:miter;stroke-opacity:1"
       d="m 115,177.3622 c -5,0 -20,0 -20,0 l 0,-99.999995 120,0 0,99.999995 -20,0 0,-79.999995 -80,0 z"
       id="path6043"
       inkscape:connector-curvature="0" />
    <path
       style="fill:#666666;fill-rule:evenodd;stroke:#000000;stroke-width:1px;stroke-linecap:butt;stroke-linejoin:miter;stroke-opacity:1"
       d="m 245,177.3622 -20,0 0,-99.999995 160,0 0,99.999995 -20,0 0,-79.999995 -120,0 z"
       id="path6045"
       inkscape:connector-curvature="0" />
    <path
       style="fill:#666666;fill-rule:evenodd;stroke:#000000;stroke-width:1px;stroke-linecap:butt;stroke-linejoin:miter;stroke-opacity:1"
       d="m 415,177.3622 -20,0 0,-99.999995 200,0 0,99.999995 -20,0 0,-79.999995 -160,0 z"
       id="path6047"
       inkscape:connector-curvature="0" />
    <path
       style="fill:#666666;fill-rule:evenodd;stroke:#000000;stroke-width:1px;stroke-linecap:butt;stroke-linejoin:miter;stroke-opacity:1"
       d="m 25,327.3622 -20,0 0,-140 80,0 0,140 -20,0 0,-120 -40,0 z"
       id="path6049"
       inkscape:connector-curvature="0" />
    <path
       style="fill:#666666;fill-rule:evenodd;stroke:#000000;stroke-width:1px;stroke-linecap:butt;stroke-linejoin:miter;stroke-opacity:1"
       d="m 65,517.3622 20,0 0,-180 -80,0 0,180 20,0 0,-160 40,0 z"
       id="path6051"
       inkscape:connector-curvature="0" />
    <path
       style="fill:#666666;fill-rule:evenodd;stroke:#000000;stroke-width:1px;stroke-linecap:butt;stroke-linejoin:miter;stroke-opacity:1"
       d="m 115,517.3622 -20,0 0,-180 120,0 0,180 -20,0 0,-160 -80,0 z"
       id="path6053"
       inkscape:connector-curvature="0" />
    <path
       style="fill:#666666;fill-rule:evenodd;stroke:#000000;stroke-width:1px;stroke-linecap:butt;stroke-linejoin:miter;stroke-opacity:1"
       d="m 115,327.3622 -20,0 0,-140 120,0 0,140 -20,0 0,-120 -80,0 z"
       id="path6055"
       inkscape:connector-curvature="0" />
    <path
       style="fill:#666666;fill-rule:evenodd;stroke:#000000;stroke-width:1px;stroke-linecap:butt;stroke-linejoin:miter;stroke-opacity:1"
       d="m 245,327.3622 -20,0 0,-140 160,0 0,140 -20,0 0,-120 -120,0 z"
       id="path6057"
       inkscape:connector-curvature="0" />
    <path
       style="fill:#666666;fill-rule:evenodd;stroke:#000000;stroke-width:1px;stroke-linecap:butt;stroke-linejoin:miter;stroke-opacity:1"
       d="m 245,517.3622 -20,0 0,-180 160,0 0,180 -20,0 0,-160 -120,0 z"
       id="path6059"
       inkscape:connector-curvature="0" />
    <path
       style="fill:#666666;fill-rule:evenodd;stroke:#000000;stroke-width:1px;stroke-linecap:butt;stroke-linejoin:miter;stroke-opacity:1"
       d="m 415,327.3622 -20,0 0,-140 200,0 0,140 -20,0 0,-120 -160,0 0,120 z"
       id="path6061"
       inkscape:connector-curvature="0" />
    <path
       style="fill:#666666;fill-rule:evenodd;stroke:#000000;stroke-width:1px;stroke-linecap:butt;stroke-linejoin:miter;stroke-opacity:1"
       d="m 415,517.3622 c -5,0 -20,0 -20,0 0,0 0,-180 0,-180 l 200,0 0,180 -20,0 0,-160 -160,0 z"
       id="path6063"
       inkscape:connector-curvature="0" />
  </g>
</svg>
