<?xml version="1.0" standalone="no"?>
<!DOCTYPE svg PUBLIC "-//W3C//DTD SVG 1.1//EN" "http://www.w3.org/Graphics/SVG/1.1/DTD/svg11.dtd">
<svg width="125" height="125" viewBox="0 -125 125 125" xmlns="http://www.w3.org/2000/svg" version="1.1">
<title>OpenSCAD Model</title>
<path
  d="M 0,-0 L 50,-0 L 50,-50 L 0,-50 z"
  stroke="black" fill="lightgray" stroke-width="2.0"/>
<path
  d="M 97.8148,-20.7912 L 91.3545,-40.6736 L 85.9699,-50 L 50,-50 L 50,-0 L 100,-0 z"
  stroke="black" fill="lightgray" stroke-width="2.0"/>
<path
  d="M 50,-86.6025 L 30.9017,-95.1056 L 10.4528,-99.4522 L 0,-99.4522 L 0,-50 L 50,-50 z"
  stroke="black" fill="lightgray" stroke-width="2.0"/>
<path
  d="M 80.9017,-58.7785 L 66.9131,-74.3145 L 50,-86.6025 L 50,-50 L 85.9699,-50 z"
  stroke="black" fill="lightgray" stroke-width="2.0"/>

<path d="
M 122.268,-25.989 L 114.193,-50.8421 L 101.127,-73.4731 L 83.6413,-92.8931 L 62.5,-108.253 L 38.6271,-118.882
 L 13.066,-124.315 L 0,-124.315 L 0,-99.4522 L 10.4528,-99.4522 L 30.9017,-95.1056 L 50,-86.6025
 L 66.9131,-74.3145 L 80.9017,-58.7785 L 91.3545,-40.6736 L 97.8148,-20.7912 L 100,-0 L 125,-0
 z
" stroke="black" fill="gray" stroke-width="2.0"/>
</svg>

